<svg xmlns="http://www.w3.org/2000/svg" xmlns:xlink="http://www.w3.org/1999/xlink" width="500" zoomAndPan="magnify" viewBox="0 0 375 374.999991" height="500" preserveAspectRatio="xMidYMid meet" version="1.0"><defs><g/></defs><g fill="#ff1616" fill-opacity="1"><g transform="translate(36.242778, 194.668984)"><g><path d="M 18.609375 -24.953125 L 18.609375 -20.21875 L 7.875 -20.21875 L 7.875 0 L 2.671875 0 L 2.671875 -46.6875 L 21.21875 -46.6875 L 21.21875 -41.953125 L 7.875 -41.953125 L 7.875 -24.953125 Z M 18.609375 -24.953125 "/></g></g></g><g fill="#ff1616" fill-opacity="1"><g transform="translate(58.917418, 194.668984)"><g/></g></g><g fill="#ff1616" fill-opacity="1"><g transform="translate(69.254391, 194.668984)"><g><path d="M 7.9375 -9.40625 L 6.140625 0 L 1.328125 0 L 10.265625 -46.6875 L 17.8125 -46.6875 L 26.75 0 L 21.546875 0 L 19.75 -9.40625 Z M 8.609375 -13.875 L 19.015625 -13.875 L 13.734375 -40.828125 Z M 8.609375 -13.875 "/></g></g></g><g fill="#ff1616" fill-opacity="1"><g transform="translate(97.397607, 194.668984)"><g/></g></g><g fill="#ff1616" fill-opacity="1"><g transform="translate(107.73458, 194.668984)"><g><path d="M 10.9375 -16.75 L 1.0625 -46.6875 L 6.46875 -46.6875 L 13.734375 -23.75 L 21.078125 -46.6875 L 26.015625 -46.6875 L 16.078125 -16.75 L 16.078125 0 L 10.9375 0 Z M 10.9375 -16.75 "/></g></g></g><g fill="#ff1616" fill-opacity="1"><g transform="translate(134.810767, 194.668984)"><g/></g></g><g fill="#ff1616" fill-opacity="1"><g transform="translate(145.14774, 194.668984)"><g><path d="M 12.46875 -47.15625 C 16.03125 -47.15625 18.65625 -46.097656 20.34375 -43.984375 C 22.03125 -41.878906 22.875 -39.046875 22.875 -35.484375 L 22.875 -34.21875 L 17.9375 -34.21875 L 17.9375 -35.75 C 17.9375 -37.882812 17.515625 -39.53125 16.671875 -40.6875 C 15.828125 -41.84375 14.472656 -42.421875 12.609375 -42.421875 C 10.742188 -42.421875 9.382812 -41.84375 8.53125 -40.6875 C 7.6875 -39.53125 7.265625 -37.90625 7.265625 -35.8125 C 7.265625 -34.082031 7.65625 -32.570312 8.4375 -31.28125 C 9.21875 -29.988281 10.1875 -28.796875 11.34375 -27.703125 C 12.5 -26.617188 13.753906 -25.554688 15.109375 -24.515625 C 16.460938 -23.472656 17.71875 -22.328125 18.875 -21.078125 C 20.03125 -19.828125 21 -18.410156 21.78125 -16.828125 C 22.5625 -15.253906 22.953125 -13.378906 22.953125 -11.203125 C 22.953125 -7.648438 22.09375 -4.816406 20.375 -2.703125 C 18.664062 -0.585938 16.007812 0.46875 12.40625 0.46875 C 8.800781 0.46875 6.15625 -0.585938 4.46875 -2.703125 C 2.78125 -4.816406 1.9375 -7.648438 1.9375 -11.203125 L 1.9375 -13.875 L 6.796875 -13.875 L 6.796875 -10.9375 C 6.796875 -8.800781 7.238281 -7.15625 8.125 -6 C 9.019531 -4.84375 10.398438 -4.265625 12.265625 -4.265625 C 14.140625 -4.265625 15.519531 -4.84375 16.40625 -6 C 17.300781 -7.15625 17.75 -8.800781 17.75 -10.9375 C 17.75 -12.675781 17.359375 -14.175781 16.578125 -15.4375 C 15.796875 -16.707031 14.828125 -17.882812 13.671875 -18.96875 C 12.515625 -20.0625 11.269531 -21.128906 9.9375 -22.171875 C 8.601562 -23.222656 7.359375 -24.367188 6.203125 -25.609375 C 5.046875 -26.859375 4.078125 -28.269531 3.296875 -29.84375 C 2.523438 -31.425781 2.140625 -33.304688 2.140625 -35.484375 C 2.140625 -39.085938 2.984375 -41.929688 4.671875 -44.015625 C 6.359375 -46.109375 8.957031 -47.15625 12.46875 -47.15625 Z M 12.46875 -47.15625 "/></g></g></g><g fill="#ff1616" fill-opacity="1"><g transform="translate(169.956454, 194.668984)"><g/></g></g><g fill="#ff1616" fill-opacity="1"><g transform="translate(180.293427, 194.668984)"><g><path d="M 12.734375 -47.15625 C 16.335938 -47.15625 18.992188 -46.085938 20.703125 -43.953125 C 22.421875 -41.816406 23.28125 -38.972656 23.28125 -35.421875 L 23.28125 -31.21875 L 18.34375 -31.21875 L 18.34375 -35.6875 C 18.34375 -37.820312 17.90625 -39.476562 17.03125 -40.65625 C 16.164062 -41.832031 14.78125 -42.421875 12.875 -42.421875 C 11.007812 -42.421875 9.628906 -41.832031 8.734375 -40.65625 C 7.847656 -39.476562 7.40625 -37.820312 7.40625 -35.6875 L 7.40625 -11 C 7.40625 -8.863281 7.847656 -7.207031 8.734375 -6.03125 C 9.628906 -4.851562 11.007812 -4.265625 12.875 -4.265625 C 14.78125 -4.265625 16.164062 -4.851562 17.03125 -6.03125 C 17.90625 -7.207031 18.34375 -8.863281 18.34375 -11 L 18.34375 -17.078125 L 23.28125 -17.078125 L 23.28125 -11.265625 C 23.28125 -7.710938 22.421875 -4.867188 20.703125 -2.734375 C 18.992188 -0.597656 16.335938 0.46875 12.734375 0.46875 C 9.179688 0.46875 6.546875 -0.597656 4.828125 -2.734375 C 3.117188 -4.867188 2.265625 -7.710938 2.265625 -11.265625 L 2.265625 -35.421875 C 2.265625 -37.203125 2.472656 -38.8125 2.890625 -40.25 C 3.316406 -41.695312 3.960938 -42.929688 4.828125 -43.953125 C 5.703125 -44.972656 6.796875 -45.757812 8.109375 -46.3125 C 9.421875 -46.875 10.960938 -47.15625 12.734375 -47.15625 Z M 12.734375 -47.15625 "/></g></g></g><g fill="#ff1616" fill-opacity="1"><g transform="translate(205.635664, 194.668984)"><g/></g></g><g fill="#ff1616" fill-opacity="1"><g transform="translate(215.972637, 194.668984)"><g><path d="M 7.875 -21.015625 L 7.875 0 L 2.671875 0 L 2.671875 -46.6875 L 7.875 -46.6875 L 7.875 -25.6875 L 19.34375 -25.6875 L 19.34375 -46.6875 L 24.546875 -46.6875 L 24.546875 0 L 19.34375 0 L 19.34375 -21.015625 Z M 7.875 -21.015625 "/></g></g></g><g fill="#ff1616" fill-opacity="1"><g transform="translate(243.182204, 194.668984)"><g/></g></g><g fill="#ff1616" fill-opacity="1"><g transform="translate(253.519178, 194.668984)"><g><path d="M 2.265625 -35.421875 C 2.265625 -39.023438 3.140625 -41.878906 4.890625 -43.984375 C 6.648438 -46.097656 9.332031 -47.15625 12.9375 -47.15625 C 16.539062 -47.15625 19.226562 -46.097656 21 -43.984375 C 22.78125 -41.878906 23.671875 -39.023438 23.671875 -35.421875 L 23.671875 -11.265625 C 23.671875 -7.710938 22.78125 -4.867188 21 -2.734375 C 19.226562 -0.597656 16.539062 0.46875 12.9375 0.46875 C 9.332031 0.46875 6.648438 -0.597656 4.890625 -2.734375 C 3.140625 -4.867188 2.265625 -7.710938 2.265625 -11.265625 Z M 7.40625 -11 C 7.40625 -8.863281 7.859375 -7.207031 8.765625 -6.03125 C 9.679688 -4.851562 11.070312 -4.265625 12.9375 -4.265625 C 14.851562 -4.265625 16.253906 -4.851562 17.140625 -6.03125 C 18.035156 -7.207031 18.484375 -8.863281 18.484375 -11 L 18.484375 -35.6875 C 18.484375 -37.820312 18.035156 -39.476562 17.140625 -40.65625 C 16.253906 -41.832031 14.851562 -42.421875 12.9375 -42.421875 C 11.070312 -42.421875 9.679688 -41.832031 8.765625 -40.65625 C 7.859375 -39.476562 7.40625 -37.820312 7.40625 -35.6875 Z M 7.40625 -11 "/></g></g></g><g fill="#ff1616" fill-opacity="1"><g transform="translate(279.461629, 194.668984)"><g/></g></g><g fill="#ff1616" fill-opacity="1"><g transform="translate(289.798602, 194.668984)"><g><path d="M 2.265625 -35.421875 C 2.265625 -39.023438 3.140625 -41.878906 4.890625 -43.984375 C 6.648438 -46.097656 9.332031 -47.15625 12.9375 -47.15625 C 16.539062 -47.15625 19.226562 -46.097656 21 -43.984375 C 22.78125 -41.878906 23.671875 -39.023438 23.671875 -35.421875 L 23.671875 -11.265625 C 23.671875 -7.710938 22.78125 -4.867188 21 -2.734375 C 19.226562 -0.597656 16.539062 0.46875 12.9375 0.46875 C 9.332031 0.46875 6.648438 -0.597656 4.890625 -2.734375 C 3.140625 -4.867188 2.265625 -7.710938 2.265625 -11.265625 Z M 7.40625 -11 C 7.40625 -8.863281 7.859375 -7.207031 8.765625 -6.03125 C 9.679688 -4.851562 11.070312 -4.265625 12.9375 -4.265625 C 14.851562 -4.265625 16.253906 -4.851562 17.140625 -6.03125 C 18.035156 -7.207031 18.484375 -8.863281 18.484375 -11 L 18.484375 -35.6875 C 18.484375 -37.820312 18.035156 -39.476562 17.140625 -40.65625 C 16.253906 -41.832031 14.851562 -42.421875 12.9375 -42.421875 C 11.070312 -42.421875 9.679688 -41.832031 8.765625 -40.65625 C 7.859375 -39.476562 7.40625 -37.820312 7.40625 -35.6875 Z M 7.40625 -11 "/></g></g></g><g fill="#ff1616" fill-opacity="1"><g transform="translate(315.741053, 194.668984)"><g/></g></g><g fill="#ff1616" fill-opacity="1"><g transform="translate(326.078026, 194.668984)"><g><path d="M 2.671875 0 L 2.671875 -46.6875 L 7.875 -46.6875 L 7.875 -4.734375 L 21.21875 -4.734375 L 21.21875 0 Z M 2.671875 0 "/></g></g></g></svg>